HIERARCHY
ROOT Hips
{
	OFFSET 0.000000 0.000000 0.000000
	CHANNELS 6 Xposition Yposition Zposition Zrotation Yrotation Xrotation 
	JOINT LHipJoint
	{
		OFFSET 0.000000 0.000000 0.000000
		CHANNELS 3 Zrotation Yrotation Xrotation
		JOINT LeftUpLeg
		{
			OFFSET 1.363060 -1.794630 0.839290
			CHANNELS 3 Zrotation Yrotation Xrotation
			JOINT LeftLeg
			{
				OFFSET 2.448110 -6.726130 0.000000
				CHANNELS 3 Zrotation Yrotation Xrotation
				JOINT LeftFoot
				{
					OFFSET 2.562200 -7.039590 0.000000
					CHANNELS 3 Zrotation Yrotation Xrotation
					JOINT LeftToeBase
					{
						OFFSET 0.157640 -0.433110 2.322550
						CHANNELS 3 Zrotation Yrotation Xrotation
						End Site
						{
							OFFSET 0.000000 0.000000 0.000000
						}
					}
				}
			}
		}
	}
	JOINT RHipJoint
	{
		OFFSET 0.000000 0.000000 0.000000
		CHANNELS 3 Zrotation Yrotation Xrotation
		JOINT RightUpLeg
		{
			OFFSET -1.305520 -1.794630 0.839290
			CHANNELS 3 Zrotation Yrotation Xrotation
			JOINT RightLeg
			{
				OFFSET -2.542530 -6.985550 0.000000
				CHANNELS 3 Zrotation Yrotation Xrotation
				JOINT RightFoot
				{
					OFFSET -2.568260 -7.056230 0.000000
					CHANNELS 3 Zrotation Yrotation Xrotation
					JOINT RightToeBase
					{
						OFFSET -0.164730 -0.452590 2.363150
						CHANNELS 3 Zrotation Yrotation Xrotation
						End Site
						{
							OFFSET 0.000000 0.000000 0.000000
						}
					}
				}
			}
		}
	}
	JOINT LowerBack
	{
		OFFSET 0.000000 0.000000 0.000000
		CHANNELS 3 Zrotation Yrotation Xrotation
		JOINT Spine
		{
			OFFSET 0.028270 2.035590 -0.193380
			CHANNELS 3 Zrotation Yrotation Xrotation
			JOINT Spine1
			{
				OFFSET 0.056720 2.048850 -0.042750
				CHANNELS 3 Zrotation Yrotation Xrotation
				JOINT Neck
				{
					OFFSET 0.000000 0.000000 0.000000
					CHANNELS 3 Zrotation Yrotation Xrotation
					JOINT Neck1
					{
						OFFSET -0.054170 1.746240 0.172020
						CHANNELS 3 Zrotation Yrotation Xrotation
						JOINT Head
						{
							OFFSET 0.104070 1.761360 -0.123970
							CHANNELS 3 Zrotation Yrotation Xrotation
							End Site
							{
								OFFSET 0.000000 0.000000 0.000000
							}
						}
					}
				}
				JOINT LeftShoulder
				{
					OFFSET 0.000000 0.000000 0.000000
					CHANNELS 3 Zrotation Yrotation Xrotation
					JOINT LeftArm
					{
						OFFSET 3.362410 1.200890 -0.311210
						CHANNELS 3 Zrotation Yrotation Xrotation
						JOINT LeftForeArm
						{
							OFFSET 4.983000 -0.000000 -0.000000
							CHANNELS 3 Zrotation Yrotation Xrotation
							JOINT LeftHand
							{
								OFFSET 3.483560 -0.000000 -0.000000
								CHANNELS 3 Zrotation Yrotation Xrotation
								JOINT LeftFingerBase
								{
									OFFSET 0.000000 0.000000 0.000000
									CHANNELS 3 Zrotation Yrotation Xrotation
									JOINT LeftHandIndex1
									{
										OFFSET 0.715260 -0.000000 -0.000000
										CHANNELS 3 Zrotation Yrotation Xrotation
										End Site
										{
											OFFSET 0.000000 0.000000 0.000000
										}
									}
								}
								JOINT LThumb
								{
									OFFSET 0.000000 0.000000 0.000000
									CHANNELS 3 Zrotation Yrotation Xrotation
									End Site
									{
										OFFSET 0.000000 0.000000 0.000000
									}
								}
							}
						}
					}
				}
				JOINT RightShoulder
				{
					OFFSET 0.000000 0.000000 0.000000
					CHANNELS 3 Zrotation Yrotation Xrotation
					JOINT RightArm
					{
						OFFSET -3.136600 1.374050 -0.404650
						CHANNELS 3 Zrotation Yrotation Xrotation
						JOINT RightForeArm
						{
							OFFSET -5.241900 -0.000000 -0.000000
							CHANNELS 3 Zrotation Yrotation Xrotation
							JOINT RightHand
							{
								OFFSET -3.444170 -0.000000 -0.000000
								CHANNELS 3 Zrotation Yrotation Xrotation
								JOINT RightFingerBase
								{
									OFFSET 0.000000 0.000000 0.000000
									CHANNELS 3 Zrotation Yrotation Xrotation
									JOINT RightHandIndex1
									{
										OFFSET -0.622530 -0.000000 -0.000000
										CHANNELS 3 Zrotation Yrotation Xrotation
										End Site
										{
											OFFSET 0.000000 0.000000 0.000000
										}
									}
								}
								JOINT RThumb
								{
									OFFSET 0.000000 0.000000 0.000000
									CHANNELS 3 Zrotation Yrotation Xrotation
									End Site
									{
										OFFSET 0.000000 0.000000 0.000000
									}
								}
							}
						}
					}
				}
			}
		}
	}
}
MOTION
Frames: 5
Frame Time: 0.008333
0.943691 17.914221 -32.393700 -4.407683 2.018493 6.442015 4.724436 2.764002 1.642326 -18.820849 -14.412227 -33.413262 2.068491 9.207333 26.778539 0.584907 0.036283 13.260075 0.458900 -4.345700 -12.051300 -6.523797 -3.362661 -0.815527 38.017270 4.650235 13.669634 -7.343897 -12.906159 46.326322 0.053470 -12.175470 19.475398 -0.070800 -1.716500 4.722800 6.426003 3.044933 7.759395 2.014672 4.355523 0.598182 -0.195657 2.480910 -3.895346 -7.655456 -5.603902 -14.600083 4.624379 -6.166268 5.745294 2.842700 -3.020200 6.801000 -3.689998 3.495367 -2.759854 -82.388573 30.306998 38.372374 112.471266 -62.421137 -81.398786 -0.039769 -0.836311 -28.590923 15.868326 8.156185 2.585300 -7.125000 0.000000 0.000000 -9.189200 39.067300 1.356600 1.526502 -2.572184 -1.468287 83.358335 -9.255058 40.320279 -137.346461 50.691500 -100.727185 1.349908 -0.986799 -7.049225 -16.604422 22.360240 -7.275400 7.125000 0.000000 0.000000 7.018300 -5.688000 6.337000 
0.935536 17.851467 -31.988735 -4.020156 1.939574 6.107199 4.664139 2.822036 1.696223 -19.537064 -13.956410 -32.374351 2.044981 9.083239 26.558208 0.673883 -0.685558 13.960672 0.290000 -3.462900 -9.570200 -6.568662 -3.376266 -0.657882 37.635730 4.972589 12.219185 -8.359397 -13.798642 50.412300 -0.010668 -12.763588 19.945396 -0.032500 -1.163000 3.197400 4.228114 1.933297 7.749538 2.782915 2.824648 -1.141357 2.809604 1.831543 -7.450689 -9.042606 -3.760418 -3.740703 4.420476 -4.046467 3.090598 3.456600 -2.191400 3.845700 -3.620510 3.449617 -3.085352 -85.916910 37.150614 34.782565 114.730933 -61.913065 -83.030678 -0.064182 -0.838097 -28.277145 15.990074 8.126056 2.597500 -7.125000 0.000000 0.000000 -9.062800 39.038400 1.344100 1.329800 -2.190290 -1.259446 80.667545 -15.322727 44.213706 -137.381072 50.524705 -100.900481 1.394754 -0.975249 -7.159710 -16.521059 22.146726 -7.194200 7.125000 0.000000 0.000000 7.027300 -5.919000 6.313900 
0.931160 17.771906 -31.580886 -3.558672 1.642722 5.932075 4.651005 2.836581 1.675616 -20.368538 -13.401923 -31.784854 2.180054 9.299040 27.365937 0.726441 -1.905765 13.636193 0.035400 -1.215000 -3.340600 -6.587308 -3.380975 -0.563488 36.996574 5.421974 10.779530 -9.426531 -14.636491 54.584406 0.024942 -12.851514 19.293523 -0.017600 -0.856900 2.355100 2.811487 1.453528 8.061835 3.091097 2.084360 -1.347880 4.326712 1.572826 -8.080864 -9.882460 -3.216766 -2.959056 4.347219 -3.305280 3.830004 3.620100 -1.888900 3.874600 -3.597162 3.439102 -3.162868 -87.812991 37.788690 33.018632 115.596961 -61.664666 -83.675550 -0.068857 -0.842233 -28.171504 16.175594 8.290224 2.678300 -7.125000 0.000000 0.000000 -8.928600 39.223800 1.282700 1.326933 -2.130494 -1.239073 79.329025 -16.567398 46.001791 -136.953991 50.734357 -100.711635 1.312694 -0.878208 -7.016887 -15.178540 19.765604 -5.932500 7.125000 0.000000 0.000000 7.765300 -8.626500 6.575000 
0.923204 17.673549 -31.184076 -3.100598 1.567434 5.607850 4.659045 2.846489 1.632213 -21.336359 -12.692909 -31.147161 2.392743 9.641796 28.614555 0.749734 -3.809294 12.203368 0.002800 0.339200 0.932100 -6.582261 -3.391217 -0.507192 36.248393 5.491047 9.374375 -10.505408 -15.377444 58.620912 0.009392 -12.678518 18.858586 -0.038000 -1.258700 3.460800 1.995630 1.365750 8.285170 3.056726 1.881383 -1.110053 4.743737 1.487903 -7.753879 -9.936182 -2.996982 -3.332151 4.520009 -2.948312 2.980425 3.697700 -1.674600 3.657100 -3.610702 3.473742 -3.103782 -87.713052 36.682262 33.360659 116.305716 -61.497773 -84.179883 -0.086130 -0.845738 -28.042525 16.694480 8.430483 2.811000 -7.125000 0.000000 0.000000 -8.493600 39.405500 1.180900 1.359744 -2.142354 -1.256275 79.191320 -16.558396 46.054590 -136.248839 51.133844 -100.201080 1.348506 -0.873376 -6.879193 -15.915568 20.086311 -6.316200 7.125000 0.000000 0.000000 7.287200 -8.212000 6.223500 
0.920320 17.563656 -30.788460 -2.793981 1.713357 5.347677 4.759757 2.815515 1.479660 -22.220029 -12.124022 -30.672392 2.734862 10.199099 30.524445 0.723402 -5.385018 9.646518 0.000300 0.115400 0.317100 -6.510765 -3.411735 -0.530386 35.450213 5.308884 7.714240 -11.624948 -16.068890 62.651681 -0.040974 -12.462978 18.659696 -0.087200 -1.904100 5.240700 3.669953 2.923266 8.285345 1.775944 3.971140 1.102873 0.961601 2.315672 -3.480973 -7.783004 -5.446617 -14.113219 5.043694 -5.929314 4.859210 3.034200 -2.873600 6.415400 -3.732067 3.529593 -2.638617 -81.595577 27.502877 40.027958 115.297105 -61.823420 -83.420531 -0.089009 -0.826348 -28.419684 16.798345 8.381073 2.806800 -7.125000 0.000000 0.000000 -8.394100 39.339700 1.180500 1.594309 -2.545527 -1.465031 83.638623 -11.096930 40.028468 -134.954811 51.928699 -99.135288 1.281551 -0.847027 -6.382442 -15.852771 19.929334 -6.215400 7.125000 0.000000 0.000000 7.350900 -8.427800 6.247100 
